<svg width="40" height="40" viewBox="0 0 40 40" fill="none" xmlns="http://www.w3.org/2000/svg">
<path fill-rule="evenodd" clip-rule="evenodd" d="M22.9245 12C21.1429 12 18.6835 12.7721 17.4403 14.1274C16.1987 15.4809 15.5094 18.1547 15.5094 20.0478V23.0509H12.8042C12.3601 23.0509 12 23.4192 12 23.8736V28.9748C12 29.4292 12.3601 29.7976 12.8042 29.7976H15.5094V39.1772C15.5094 39.6316 15.8694 40 16.3136 40H17.8797V38.3545V28.9748C17.8797 28.5204 17.5197 28.1521 17.0755 28.1521H14.3704V24.6964H17.0755C17.5197 24.6964 17.8797 24.3281 17.8797 23.8736V20.0478C17.8797 18.5585 18.4229 17.14 19.3751 16.1019C20.3257 15.0656 21.6036 14.494 22.9245 14.494H25.6296V17.9497H22.9245C22.3838 17.9497 21.8765 18.1843 21.5109 18.583C21.1468 18.9798 20.9505 19.5076 20.9505 20.0478V23.8736C20.9505 24.3281 21.3105 24.6964 21.7547 24.6964H25.4191L24.6267 28.1521H21.7547C21.3105 28.1521 20.9505 28.5204 20.9505 28.9748V38.3545V40H22.5166C22.9608 40 23.3208 39.6316 23.3208 39.1772V29.7976H26.026C26.3994 29.7976 26.7237 29.5347 26.8089 29.1628L27.9787 24.0616C28.0348 23.817 27.9786 23.5595 27.826 23.3626C27.6735 23.1657 27.4414 23.0509 27.1958 23.0509H23.3208V20.0478C23.3208 19.9115 23.371 19.7904 23.4457 19.709C23.5187 19.6293 23.6065 19.5952 23.6864 19.5952H27.1958C27.6399 19.5952 28 19.2269 28 18.7725V13.6713C27.9787 12.8485 27.1958 12 26.4339 12H22.9245Z" fill="#6E1A38"/>
<path fill-rule="evenodd" clip-rule="evenodd" d="M4 3H36C36.5523 3 37 3.44772 37 4V36C37 36.5523 36.5523 37 36 37H22V40H36C38.2091 40 40 38.2091 40 36V4C40 1.79086 38.2091 0 36 0H4C1.79086 0 0 1.79086 0 4V36C0 38.2091 1.79086 40 4 40H16V37H4C3.44772 37 3 36.5523 3 36V4C3 3.44772 3.44772 3 4 3Z" fill="#6E1A38"/>
</svg>
