<svg width="40" height="40" viewBox="0 0 40 40" fill="none" xmlns="http://www.w3.org/2000/svg">
<path d="M26.75 20C26.75 16.25 23.75 13.25 20 13.25C16.25 13.25 13.25 16.25 13.25 20C13.25 23.75 16.25 26.75 20 26.75C23.75 26.75 26.75 23.75 26.75 20ZM30.25 20C30.25 25.75 25.75 30.25 20 30.25C14.25 30.25 9.75 25.75 9.75 20C9.75 14.25 14.25 9.75 20 9.75C25.75 9.75 30.25 14.25 30.25 20ZM33 9.25C33 10.75 32 11.75 30.5 11.75C29 11.75 28 10.75 28 9.25C28 7.75 29 6.75 30.5 6.75C32 6.75 33 8 33 9.25ZM20 3.5C17 3.5 10.75 3.25 8.25 4.25C6.5 5 5 6.5 4.5 8.25C3.5 10.75 3.75 17 3.75 20C3.75 23 3.5 29.25 4.5 31.75C5 33.5 6.5 35 8.25 35.5C10.75 36.5 17.25 36.25 20 36.25C22.75 36.25 29.25 36.5 31.75 35.5C33.5 34.75 34.75 33.5 35.5 31.75C36.5 29 36.25 22.75 36.25 20C36.25 17.25 36.5 10.75 35.5 8.25C35 6.5 33.5 5 31.75 4.5C29.25 3.25 23 3.5 20 3.5ZM40 20V28.25C40 31.25 39 34.25 36.75 36.75C34.5 39 31.5 40 28.25 40H11.75C8.75 40 5.75 39 3.25 36.75C1.25 34.5 0 31.5 0 28.25V20V11.75C0 8.5 1.25 5.5 3.25 3.25C5.75 1.25 8.75 0 11.75 0H28.25C31.25 0 34.25 1 36.75 3.25C38.75 5.5 40 8.5 40 11.75V20Z" fill="#670C1B"/>
</svg>
