<svg width="40" height="40" viewBox="0 0 40 40" fill="none" xmlns="http://www.w3.org/2000/svg">
<path fill-rule="evenodd" clip-rule="evenodd" d="M22.9245 8C21.1429 8 18.6835 8.88236 17.4403 10.4313C16.1987 11.9782 15.5094 15.0339 15.5094 17.1974V20.6296H12.8042C12.3601 20.6296 12 21.0506 12 21.5699V27.3998C12 27.9191 12.3601 28.3401 12.8042 28.3401H15.5094V39.0597C15.5094 39.579 15.8694 40 16.3136 40H17.8797V38.1194V27.3998C17.8797 26.8805 17.5197 26.4595 17.0755 26.4595H14.3704V22.5102H17.0755C17.5197 22.5102 17.8797 22.0892 17.8797 21.5699V17.1974C17.8797 15.4955 18.4229 13.8743 19.3751 12.6879C20.3257 11.5035 21.6036 10.8503 22.9245 10.8503H25.6296V14.7996H22.9245C22.3838 14.7996 21.8765 15.0678 21.5109 15.5234C21.1468 15.977 20.9505 16.5801 20.9505 17.1974V21.5699C20.9505 22.0892 21.3105 22.5102 21.7547 22.5102H25.4191L24.6267 26.4595H21.7547C21.3105 26.4595 20.9505 26.8805 20.9505 27.3998V38.1194V40H22.5166C22.9608 40 23.3208 39.579 23.3208 39.0597V28.3401H26.026C26.3994 28.3401 26.7237 28.0396 26.8089 27.6146L27.9787 21.7847C28.0348 21.5051 27.9786 21.2109 27.826 20.9858C27.6735 20.7608 27.4414 20.6296 27.1958 20.6296H23.3208V17.1974C23.3208 17.0417 23.371 16.9034 23.4457 16.8103C23.5187 16.7192 23.6065 16.6803 23.6864 16.6803H27.1958C27.6399 16.6803 28 16.2593 28 15.7399V9.91001C27.9787 8.9697 27.1958 8 26.4339 8H22.9245Z" fill="#6E1A38"/>
<path fill-rule="evenodd" clip-rule="evenodd" d="M4 3H36C36.5523 3 37 3.44772 37 4V36C37 36.5523 36.5523 37 36 37H22V40H36C38.2091 40 40 38.2091 40 36V4C40 1.79086 38.2091 0 36 0H4C1.79086 0 0 1.79086 0 4V36C0 38.2091 1.79086 40 4 40H16V37H4C3.44772 37 3 36.5523 3 36V4C3 3.44772 3.44772 3 4 3Z" fill="#6E1A38"/>
</svg>
