<svg width="40" height="40" viewBox="0 0 40 40" fill="none" xmlns="http://www.w3.org/2000/svg">
<path fill-rule="evenodd" clip-rule="evenodd" d="M34.1723 5.81258C32.3232 3.96265 30.1265 2.49671 27.7087 1.49915C25.2908 0.501601 22.6995 -0.00786287 20.0839 9.17317e-05C9.10713 9.17317e-05 0.171428 8.89115 0.166964 19.8215C0.162108 23.302 1.07955 26.7216 2.82589 29.7322L0 40L10.558 37.2438C13.4805 38.827 16.7521 39.6556 20.0759 39.6545H20.0839C31.0598 39.6545 39.9946 30.7625 39.9999 19.8331C40.0066 17.2265 39.4948 14.6445 38.4943 12.2375C37.4938 9.83051 36.0247 7.64651 34.1723 5.81258ZM20.0839 36.309H20.0768C17.1137 36.3098 14.2045 35.5169 11.6518 34.0125L11.0473 33.6554L4.78214 35.2911L6.45445 29.2117L6.0607 28.5867C4.40391 25.9636 3.52611 22.924 3.52946 19.8215C3.52946 10.7385 10.9589 3.3483 20.0901 3.3483C24.4705 3.34048 28.6746 5.07288 31.7777 8.16447C34.8809 11.2561 36.6289 15.4536 36.6374 19.834C36.6339 28.9179 29.208 36.309 20.0839 36.309ZM29.1633 23.9706C28.666 23.7224 26.2169 22.5242 25.7634 22.359C25.3098 22.1938 24.975 22.1108 24.6437 22.6072C24.3125 23.1036 23.358 24.2143 23.0678 24.5492C22.7776 24.884 22.4875 24.9206 21.9901 24.6724C21.4928 24.4242 19.8884 23.9018 17.9875 22.2143C16.508 20.9009 15.5098 19.2795 15.2196 18.784C14.9294 18.2885 15.1884 18.0197 15.4375 17.7733C15.6616 17.551 15.9348 17.1947 16.1839 16.9054C16.433 16.6161 16.516 16.409 16.6812 16.0786C16.8464 15.7483 16.7643 15.459 16.6402 15.2117C16.516 14.9644 15.5205 12.526 15.1062 11.534C14.7018 10.5679 14.2919 10.6992 13.9866 10.684C13.6964 10.6697 13.3616 10.6661 13.0321 10.6661C12.7803 10.6727 12.5324 10.7311 12.3042 10.8377C12.0759 10.9443 11.872 11.0969 11.7053 11.2858C11.2491 11.7822 9.96338 12.9822 9.96338 15.4179C9.96338 17.8536 11.7491 20.2108 11.9955 20.5411C12.2419 20.8715 15.5044 25.8742 20.4964 28.0197C21.4234 28.4167 22.3705 28.7648 23.3339 29.0625C24.5259 29.4393 25.6107 29.3867 26.4678 29.259C27.4241 29.117 29.4142 28.0608 29.8276 26.9036C30.241 25.7465 30.2419 24.7554 30.1178 24.5492C29.9937 24.3429 29.6616 24.2179 29.1633 23.9706Z" fill="#670C1B"/>
</svg>
