<svg width="25" height="20" viewBox="0 0 25 20" fill="none" xmlns="http://www.w3.org/2000/svg">
<path d="M3.41859 7.49951L10.7189 15.292L7.2035 7.49951H3.41859ZM12.9336 16.5458L17.0232 7.49951H8.84402L12.9336 16.5458ZM7.23865 5.99961L9.62912 1.4999H6.55901L3.18423 5.99961H7.23865ZM15.1483 15.292L22.4486 7.49951H18.6637L15.1483 15.292ZM8.93776 5.99961H16.9294L14.539 1.4999H11.3282L8.93776 5.99961ZM18.6285 5.99961H22.683L19.3082 1.4999H16.2381L18.6285 5.99961ZM20.2808 0.304668L24.7805 6.30428C24.8898 6.44489 24.9406 6.60699 24.9328 6.79057C24.925 6.97416 24.8586 7.13235 24.7336 7.26515L13.4843 19.2644C13.3437 19.4206 13.1601 19.4987 12.9336 19.4987C12.707 19.4987 12.5235 19.4206 12.3828 19.2644L1.13358 7.26515C1.00859 7.13235 0.942187 6.97416 0.934375 6.79057C0.926563 6.60699 0.977341 6.44489 1.08671 6.30428L5.58642 0.304668C5.72703 0.101556 5.92624 0 6.18403 0H19.6832C19.941 0 20.1402 0.101556 20.2808 0.304668Z" fill="#670C1B"/>
</svg>
