<svg width="22" height="24" viewBox="0 0 22 24" fill="#670c1b" xmlns="http://www.w3.org/2000/svg">
<path d="M8.281 0C5.821 0 3.719 0.785 2.25 2.188C0.781 3.59 0 5.585 0 7.843C0 9.546 0.652 10.858 1.313 12.03C1.973 13.202 2.637 14.253 3 15.562C3.438 17.175 3.742 19.104 4.25 20.718C4.504 21.522 4.809 22.257 5.281 22.874C5.754 23.491 6.504 23.999 7.375 23.999C8.211 23.999 9.043 23.565 9.469 22.905C9.895 22.245 10 21.464 10 20.624C10 19.593 10 17.984 10.219 16.718C10.329 16.085 10.516 15.558 10.688 15.28C10.859 15.003 10.868 14.999 11 14.999C11.133 14.999 11.14 14.999 11.313 15.28C11.484 15.562 11.672 16.085 11.781 16.718C12.004 17.983 12 19.593 12 20.624C12 21.464 12.105 22.245 12.531 22.905C12.957 23.565 13.789 23.999 14.625 23.999C15.5 23.999 16.25 23.495 16.719 22.874C17.187 22.253 17.496 21.495 17.75 20.686C18.258 19.069 18.566 17.147 19 15.561C19.363 14.253 20.027 13.202 20.688 12.031C21.348 10.858 22 9.546 22 7.843C22.05 3.304 18.594 0 14.062 0C12.746 0 11.192 0.488 10.937 0.563C10.125 0.243 9.238 0 8.281 0ZM8.281 2C10.598 2 13.25 4.438 13.25 4.438L14.656 3C14.656 3 13.996 2.48 13.531 2.094C13.742 2.062 13.926 2 14.063 2C17.683 2 20.039 4.238 20 7.813V7.843C20 9.055 19.586 9.969 18.969 11.063C18.352 12.156 17.519 13.379 17.062 15.031C16.586 16.77 16.282 18.695 15.844 20.094C15.625 20.793 15.355 21.355 15.125 21.656C14.895 21.957 14.82 22 14.625 22C14.32 22 14.32 21.969 14.219 21.812C14.117 21.656 14 21.242 14 20.625C14 19.605 14.02 17.915 13.75 16.375C13.613 15.605 13.426 14.863 13.031 14.219C12.637 13.574 11.883 13 11 13C10.117 13 9.363 13.574 8.969 14.219C8.574 14.863 8.383 15.605 8.25 16.375C7.98 17.915 8 19.605 8 20.625C8 21.242 7.883 21.656 7.781 21.813C7.68 21.969 7.68 22 7.375 22C7.175 22 7.102 21.953 6.875 21.656C6.648 21.359 6.375 20.82 6.156 20.125C5.719 18.735 5.414 16.789 4.937 15.031C4.48 13.379 3.648 12.156 3.031 11.063C2.414 9.969 2 9.059 2 7.842C2 6.042 2.605 4.624 3.656 3.624C4.707 2.624 6.23 2 8.281 2Z" fill="#670c1b"/>
</svg>
