<svg width="48" height="49" viewBox="0 0 48 49" fill="none" xmlns="http://www.w3.org/2000/svg">
<path d="M32.1 24.0538C32.1 19.5437 28.5 15.9357 24 15.9357C19.5 15.9357 15.9 19.5437 15.9 24.0538C15.9 28.5639 19.5 32.172 24 32.172C28.5 32.172 32.1 28.5639 32.1 24.0538ZM36.3 24.0538C36.3 30.9693 30.9 36.3814 24 36.3814C17.1 36.3814 11.7 30.9693 11.7 24.0538C11.7 17.1383 17.1 11.7262 24 11.7262C30.9 11.7262 36.3 17.1383 36.3 24.0538ZM39.6 11.1249C39.6 12.9289 38.4 14.1316 36.6 14.1316C34.8 14.1316 33.6 12.9289 33.6 11.1249C33.6 9.32085 34.8 8.11816 36.6 8.11816C38.4 8.11816 39.6 9.62152 39.6 11.1249ZM24 4.20942C20.4 4.20942 12.9 3.90874 9.9 5.11144C7.8 6.01345 6 7.81749 5.4 9.9222C4.2 12.9289 4.5 20.4457 4.5 24.0538C4.5 27.6619 4.2 35.1787 5.4 38.1854C6 40.2901 7.8 42.0942 9.9 42.6955C12.9 43.8982 20.7 43.5975 24 43.5975C27.3 43.5975 35.1 43.8982 38.1 42.6955C40.2 41.7935 41.7 40.2901 42.6 38.1854C43.8 34.878 43.5 27.3612 43.5 24.0538C43.5 20.7464 43.8 12.9289 42.6 9.9222C42 7.81749 40.2 6.01345 38.1 5.41211C35.1 3.90874 27.6 4.20942 24 4.20942ZM48 24.0538V33.976C48 37.5841 46.8 41.1922 44.1 44.1989C41.4 46.9049 37.8 48.1076 33.9 48.1076H14.1C10.5 48.1076 6.9 46.9049 3.9 44.1989C1.5 41.4928 0 37.8848 0 33.976V24.0538V14.1316C0 10.2229 1.5 6.6148 3.9 3.90874C6.9 1.50336 10.5 0 14.1 0H33.9C37.5 0 41.1 1.20269 44.1 3.90874C46.5 6.6148 48 10.2229 48 14.1316V24.0538Z" fill="white"/>
</svg>
