<svg width="48" height="49" viewBox="0 0 48 49" fill="none" xmlns="http://www.w3.org/2000/svg">
<path d="M46.6311 33.9946L36.1309 29.4844C35.6824 29.2928 35.1839 29.2524 34.7104 29.3693C34.237 29.4863 33.8143 29.7542 33.5059 30.1327L28.8558 35.8268C21.5579 32.3782 15.6848 26.4919 12.244 19.1777L17.9253 14.5172C18.3038 14.2087 18.5716 13.785 18.6884 13.3103C18.8051 12.8356 18.7643 12.3357 18.5722 11.8863L14.0721 1.36253C13.8613 0.878075 13.4884 0.482531 13.0177 0.244105C12.5471 0.00568014 12.0082 -0.060681 11.4939 0.0564648L1.74378 2.31155C1.24799 2.42629 0.80565 2.70608 0.488948 3.10523C0.172245 3.50439 -0.000114209 3.99934 5.67779e-08 4.50932C5.67779e-08 28.6105 19.491 48.1076 43.5008 48.1076C44.0098 48.108 44.5038 47.9353 44.9023 47.6179C45.3007 47.3004 45.58 46.857 45.6945 46.3599L47.9446 36.5879C48.0607 36.07 47.9931 35.5277 47.7534 35.0544C47.5136 34.5811 47.1168 34.2063 46.6311 33.9946Z" fill="white"/>
</svg>
