<svg width="48" height="49" viewBox="0 0 48 49" fill="none" xmlns="http://www.w3.org/2000/svg">
<path fill-rule="evenodd" clip-rule="evenodd" d="M41.0067 6.99074C38.7879 4.76584 36.1518 3.00276 33.2504 1.80302C30.3489 0.60327 27.2394 -0.00945659 24.1007 0.000110325C10.9286 0.000110325 0.205714 10.6933 0.200357 23.8391C0.19453 28.025 1.29546 32.1378 3.39107 35.7586L0 48.1077L12.6696 44.7927C16.1766 46.6969 20.1025 47.6935 24.091 47.6921H24.1007C37.2717 47.6921 47.9935 36.9978 47.9999 23.8531C48.0079 20.7181 47.3937 17.6128 46.1932 14.7179C44.9926 11.8231 43.2296 9.19639 41.0067 6.99074ZM24.1007 43.6684H24.0921C20.5364 43.6695 17.0454 42.7158 13.9821 40.9066L13.2568 40.477L5.73856 42.4443L7.74535 35.1326L7.27285 34.3809C5.28469 31.2262 4.23133 27.5704 4.23535 23.8391C4.23535 12.9151 13.1507 4.02697 24.1082 4.02697C29.3646 4.01756 34.4095 6.10111 38.1333 9.81933C41.857 13.5376 43.9547 18.586 43.9649 23.8542C43.9606 34.7793 35.0496 43.6684 24.1007 43.6684ZM34.996 28.8292C34.3992 28.5307 31.4603 27.0896 30.916 26.8909C30.3717 26.6923 29.97 26.5924 29.5725 27.1895C29.175 27.7865 28.0296 29.1224 27.6814 29.525C27.3332 29.9277 26.985 29.9718 26.3882 29.6732C25.7914 29.3747 23.866 28.7465 21.585 26.717C19.8096 25.1374 18.6118 23.1873 18.2635 22.5913C17.9153 21.9954 18.226 21.6721 18.525 21.3758C18.7939 21.1084 19.1218 20.6799 19.4207 20.332C19.7196 19.9841 19.8193 19.7349 20.0175 19.3376C20.2157 18.9403 20.1171 18.5924 19.9682 18.2949C19.8193 17.9975 18.6246 15.0649 18.1275 13.8718C17.6421 12.71 17.1503 12.8678 16.7839 12.8496C16.4357 12.8324 16.0339 12.8281 15.6385 12.8281C15.3363 12.836 15.0389 12.9062 14.765 13.0344C14.4911 13.1627 14.2464 13.3461 14.0464 13.5733C13.4989 14.1704 11.9561 15.6136 11.9561 18.543C11.9561 21.4724 14.0989 24.3073 14.3946 24.7046C14.6903 25.1019 18.6053 31.1186 24.5957 33.699C25.708 34.1765 26.8446 34.5951 28.0007 34.9533C29.431 35.4064 30.7328 35.3431 31.7614 35.1895C32.9089 35.0188 35.2971 33.7484 35.7932 32.3567C36.2892 30.965 36.2903 29.7731 36.1414 29.525C35.9924 29.277 35.5939 29.1267 34.996 28.8292Z" fill="white"/>
</svg>
