<svg width="1444" height="689" viewBox="0 0 1444 689" fill="none" xmlns="http://www.w3.org/2000/svg">
<g clip-path="url(#clip0)">
<rect width="1444" height="689" fill="white"/>
<rect width="1444" height="689" fill="#821729"/>
<path d="M1531 662.5C1531 720.407 1414.62 676.198 1428 769C1371.11 769 1325 721.318 1325 662.5C1325 603.682 1371.11 556 1428 556C1484.89 556 1531 604.593 1531 662.5Z" fill="#912738"/>
<path d="M76 0C76 0 30.1252 24.6742 19.5 53C7.85202 84.0525 37 209.5 19.5 294.5C17.6123 303.669 -45.3067 354.589 -51 294.5C-78.5574 255.348 -82 0 -82 0H76Z" fill="#8C2E3D"/>
<ellipse cx="760" cy="357.5" rx="147" ry="145.5" fill="#670C1B"/>
<path d="M1578 272.311C1578 330.032 1533.11 376.824 1477.73 376.824C1422.36 376.824 1305 382.805 1305 325.085C1422.14 190.564 1343.93 25 1399.31 25C1454.68 25 1578 214.591 1578 272.311Z" fill="#670C1B"/>
<path d="M120 570C120 634.703 -10.5071 585.305 4.5 689C-59.2889 689 -111 635.722 -111 570C-111 504.278 -59.2889 451 4.5 451C68.2889 451 120 505.297 120 570Z" fill="#912738"/>
</g>
<defs>
<clipPath id="clip0">
<rect width="1444" height="689" fill="white"/>
</clipPath>
</defs>
</svg>
