<svg width="556" height="525" viewBox="0 0 556 525" fill="none" xmlns="http://www.w3.org/2000/svg">
<path d="M294.138 2.50209C336.299 3.77333 383.076 -7.365 418.395 15.673C453.815 38.7766 459.124 87.9471 480.784 124.248C501.023 158.167 530.872 185.92 542.498 223.662C554.856 263.783 561.829 307.637 549.647 347.811C537.47 387.969 507.321 420.576 474.756 447.073C444.177 471.954 405.465 481.932 368.37 495.309C332.287 508.32 297.039 525.506 258.681 524.989C219.547 524.461 183.055 508.55 147.445 492.328C109.638 475.105 66.6648 461.144 43.2505 426.849C19.8486 392.572 28.0709 353.462 20.2975 306.093C12.4839 258.479 -6.84052 230.858 3.38198 183.703C13.7574 135.842 41.5959 108.546 71.0293 78.1115C100.035 48.119 133.509 21.672 173.04 8.2751C211.796 -4.85892 253.232 1.26869 294.138 2.50209Z" fill="#590311"/>
</svg>
