<svg width="40" height="87" viewBox="0 0 40 87" fill="none" xmlns="http://www.w3.org/2000/svg">
<circle cx="20" cy="63" r="19" stroke="#670C1B" stroke-width="2"/>
<path d="M25.1138 58.032C25.4978 57.3493 26.0738 57.008 26.8418 57.008C27.3538 57.008 27.8018 57.1787 28.1858 57.52C28.5698 57.904 28.7618 58.352 28.7618 58.864C28.7618 59.3333 28.6124 59.7813 28.3138 60.208L22.4258 68.912C21.7431 69.936 20.9324 70.448 19.9938 70.448C19.0551 70.448 18.2444 69.936 17.5618 68.912L11.6098 60.208C11.3111 59.7813 11.1618 59.3547 11.1618 58.928C11.1618 58.416 11.3751 57.968 11.8018 57.584C12.1858 57.2 12.6338 57.008 13.1458 57.008C13.9138 57.008 14.4898 57.3493 14.8738 58.032L19.9938 66.352L25.1138 58.032Z" fill="#670C1B"/>
</svg>
