<svg width="24" height="24" viewBox="0 0 24 24" fill="none" xmlns="http://www.w3.org/2000/svg">
<path d="M23.3152 16.959L18.0652 14.709C17.8409 14.6134 17.5916 14.5932 17.3549 14.6516C17.1182 14.7099 16.9068 14.8435 16.7527 15.0324L14.4277 17.873C10.7788 16.1526 7.84228 13.2161 6.12188 9.56723L8.9625 7.24223C9.15172 7.08833 9.28565 6.87697 9.34401 6.64015C9.40237 6.40332 9.38199 6.15393 9.28594 5.92973L7.03594 0.679731C6.93052 0.438048 6.74408 0.240721 6.50876 0.121777C6.27344 0.00283366 6.00399 -0.0302721 5.74687 0.0281687L0.871875 1.15317C0.623986 1.21041 0.402818 1.34999 0.24447 1.54911C0.0861212 1.74824 -5.71036e-05 1.99516 2.83885e-08 2.24958C2.83885e-08 14.273 9.74531 23.9996 21.75 23.9996C22.0045 23.9997 22.2515 23.9136 22.4507 23.7553C22.65 23.5969 22.7896 23.3757 22.8469 23.1277L23.9719 18.2527C24.0299 17.9943 23.9961 17.7238 23.8763 17.4877C23.7564 17.2515 23.558 17.0646 23.3152 16.959V16.959Z" fill="white"/>
</svg>
